Right_states
version=1
nRows=4
nColumns=140
inDegrees=yes

# SIMM Motion File Header:
name Right_states
datacolumns 140
datarows 4
otherdata 1
range 0.00000000 0.00088706
endheader
time	/jointset/sternoclavicular/sternoclavicular_r2/value	/jointset/sternoclavicular/sternoclavicular_r2/speed	/jointset/sternoclavicular/sternoclavicular_r3/value	/jointset/sternoclavicular/sternoclavicular_r3/speed	/jointset/unrotscap/unrotscap_r3/value	/jointset/unrotscap/unrotscap_r3/speed	/jointset/unrotscap/unrotscap_r2/value	/jointset/unrotscap/unrotscap_r2/speed	/jointset/acromioclavicular/acromioclavicular_r2/value	/jointset/acromioclavicular/acromioclavicular_r2/speed	/jointset/acromioclavicular/acromioclavicular_r3/value	/jointset/acromioclavicular/acromioclavicular_r3/speed	/jointset/acromioclavicular/acromioclavicular_r1/value	/jointset/acromioclavicular/acromioclavicular_r1/speed	/jointset/unrothum/unrothum_r1/value	/jointset/unrothum/unrothum_r1/speed	/jointset/unrothum/unrothum_r3/value	/jointset/unrothum/unrothum_r3/speed	/jointset/unrothum/unrothum_r2/value	/jointset/unrothum/unrothum_r2/speed	/jointset/shoulder0/elv_angle/value	/jointset/shoulder0/elv_angle/speed	/jointset/shoulder1/shoulder_elv/value	/jointset/shoulder1/shoulder_elv/speed	/jointset/shoulder1/shoulder1_r2/value	/jointset/shoulder1/shoulder1_r2/speed	/jointset/shoulder2/shoulder_rot/value	/jointset/shoulder2/shoulder_rot/speed	/jointset/elbow/elbow_flexion/value	/jointset/elbow/elbow_flexion/speed	/jointset/radioulnar/pro_sup/value	/jointset/radioulnar/pro_sup/speed	/jointset/radiocarpal/deviation/value	/jointset/radiocarpal/deviation/speed	/jointset/radiocarpal/flexion/value	/jointset/radiocarpal/flexion/speed	/jointset/wrist_hand/wrist_hand_r1/value	/jointset/wrist_hand/wrist_hand_r1/speed	/jointset/wrist_hand/wrist_hand_r3/value	/jointset/wrist_hand/wrist_hand_r3/speed	/forceset/DELT1/activation	/forceset/DELT1/fiber_length	/forceset/DELT2/activation	/forceset/DELT2/fiber_length	/forceset/DELT3/activation	/forceset/DELT3/fiber_length	/forceset/SUPSP/activation	/forceset/SUPSP/fiber_length	/forceset/INFSP/activation	/forceset/INFSP/fiber_length	/forceset/SUBSC/activation	/forceset/SUBSC/fiber_length	/forceset/TMIN/activation	/forceset/TMIN/fiber_length	/forceset/TMAJ/activation	/forceset/TMAJ/fiber_length	/forceset/PECM1/activation	/forceset/PECM2/activation	/forceset/PECM2/fiber_length	/forceset/PECM3/activation	/forceset/PECM3/fiber_length	/forceset/LAT1/activation	/forceset/LAT1/fiber_length	/forceset/LAT2/activation	/forceset/LAT2/fiber_length	/forceset/LAT3/activation	/forceset/LAT3/fiber_length	/forceset/CORB/activation	/forceset/CORB/fiber_length	/forceset/TRIlong/activation	/forceset/TRIlong/fiber_length	/forceset/TRIlat/activation	/forceset/TRIlat/fiber_length	/forceset/TRImed/activation	/forceset/TRImed/fiber_length	/forceset/ANC/activation	/forceset/ANC/fiber_length	/forceset/SUP/activation	/forceset/SUP/fiber_length	/forceset/BIClong/activation	/forceset/BIClong/fiber_length	/forceset/BICshort/activation	/forceset/BICshort/fiber_length	/forceset/BRA/activation	/forceset/BRA/fiber_length	/forceset/BRD/activation	/forceset/BRD/fiber_length	/forceset/ECRL/activation	/forceset/ECRL/fiber_length	/forceset/ECRB/activation	/forceset/ECRB/fiber_length	/forceset/ECU/activation	/forceset/ECU/fiber_length	/forceset/FCR/activation	/forceset/FCR/fiber_length	/forceset/FCU/activation	/forceset/FCU/fiber_length	/forceset/PL/activation	/forceset/PL/fiber_length	/forceset/PT/activation	/forceset/PT/fiber_length	/forceset/PQ/activation	/forceset/PQ/fiber_length	/forceset/FDSL/activation	/forceset/FDSL/fiber_length	/forceset/FDSR/activation	/forceset/FDSR/fiber_length	/forceset/FDSM/activation	/forceset/FDSM/fiber_length	/forceset/FDSI/activation	/forceset/FDSI/fiber_length	/forceset/FDPL/activation	/forceset/FDPL/fiber_length	/forceset/FDPR/activation	/forceset/FDPR/fiber_length	/forceset/FDPM/activation	/forceset/FDPM/fiber_length	/forceset/FDPI/activation	/forceset/FDPI/fiber_length	/forceset/EDCL/activation	/forceset/EDCL/fiber_length	/forceset/EDCR/activation	/forceset/EDCR/fiber_length	/forceset/EDCM/activation	/forceset/EDCM/fiber_length	/forceset/EDCI/activation	/forceset/EDCI/fiber_length	/forceset/EDM/activation	/forceset/EDM/fiber_length	/forceset/EIP/activation	/forceset/EIP/fiber_length	/forceset/EPL/activation	/forceset/EPL/fiber_length	/forceset/EPB/activation	/forceset/EPB/fiber_length	/forceset/FPL/activation	/forceset/FPL/fiber_length	/forceset/APL/activation	/forceset/APL/fiber_length
      0.00000000	     -5.59481054	      0.00000000	      2.36969769	      0.00000000	     -2.36969769	      0.00000000	      5.59481054	      0.00000000	     -1.13283533	      0.00000000	      9.15517664	      0.00000000	      4.11518889	      0.00000000	     -4.11518889	      0.00000000	     -9.15517664	      0.00000000	      1.13283533	      0.00000000	    -38.26200000	      0.00000000	     23.11900002	      0.00000000	     38.26200000	      0.00000000	     -8.06800000	      0.00000000	     97.67699978	      0.00000000	      0.00000000	      0.00000000	      0.00000001	      0.00000000	      0.00000000	      0.00000000	      0.00000102	      0.00000000	      0.00000000	      0.00000000	      1.00000000	      0.13319937	      1.00000000	      0.08989991	      1.00000000	      0.10296508	      1.00000000	      0.06561505	      1.00000000	      0.07618653	      1.00000000	      0.07836068	      1.00000000	      0.05982141	      1.00000000	      0.11688729	      1.00000000	      1.00000000	      0.11381384	      1.00000000	      0.08845875	      1.00000000	      0.16321671	      1.00000000	      0.12645851	      1.00000000	      0.19169845	      1.00000000	      0.07762635	      1.00000000	      0.16276115	      1.00000000	      0.10420160	      1.00000000	      0.09938614	      1.00000000	      0.02230176	      1.00000000	      0.03323799	      1.00000000	      0.10454026	      1.00000000	      0.11740738	      1.00000000	      0.06414131	      1.00000000	      0.11479326	      1.00000000	      0.05437305	      1.00000000	      0.05423763	      1.00000000	      0.06363658	      1.00000000	      0.04246013	      1.00000000	      0.02896240	      1.00000000	      0.04162128	      1.00000000	      0.03880442	      1.00000000	      0.02646702	      1.00000000	      0.02880703	      1.00000000	      0.04909779	      1.00000000	      0.06458967	      1.00000000	      0.07723801	      1.00000000	      0.06638781	      1.00000000	      0.07000586	      1.00000000	      0.06631071	      1.00000000	      0.06570712	      1.00000000	      0.07028157	      1.00000000	      0.05768815	      1.00000000	      0.06931060	      1.00000000	      0.06230113	      1.00000000	      0.06948290	      1.00000000	      0.05956500	      1.00000000	      0.05531140	      1.00000000	      0.06416834	      1.00000000	      0.05382315	      1.00000000	      0.06653389
      0.00029569	     -5.59474795	      0.42210511	      2.36967117	     -0.17878380	     -2.36967117	      0.17878380	      5.59474795	     -0.42210511	     -1.13282265	      0.08546770	      9.15507420	     -0.69071987	      4.11514285	     -0.31047383	     -4.11514285	      0.31047383	     -9.15507420	      0.69071987	      1.13282265	     -0.08546770	    -38.26201809	     -0.12155721	     23.11874135	     -1.74423207	     38.26201809	      0.12155721	     -8.07587581	    -52.98264973	     97.67818630	      8.02994605	      0.00965278	     63.58386569	     -0.00007267	     -0.48574536	      0.00125265	      8.43872904	     -0.00565064	    -37.77411065	      0.03588578	    241.75177923	      0.98540448	      0.13319978	      0.98540448	      0.08990037	      0.98540448	      0.10296561	      0.98540448	      0.06561532	      0.98540448	      0.07618679	      0.98540448	      0.07836110	      0.98540448	      0.05982170	      0.98540448	      0.11688803	      0.98540448	      0.98540448	      0.11381444	      0.98540448	      0.08845934	      0.98540448	      0.16321780	      0.98540448	      0.12645947	      0.98540448	      0.19169964	      0.98540448	      0.07762674	      0.98540448	      0.16276171	      0.98540448	      0.10420209	      0.98540448	      0.09938663	      0.98540448	      0.02230188	      0.98540448	      0.03323814	      0.98540448	      0.10454076	      0.98540448	      0.11740796	      0.98540448	      0.06414167	      0.98540448	      0.11479395	      0.98540448	      0.05437342	      0.98540448	      0.05423791	      0.98540448	      0.06363687	      0.98540448	      0.04246035	      0.98540448	      0.02896255	      0.98540448	      0.04162148	      0.98540448	      0.03880463	      0.98540448	      0.02646709	      0.98540448	      0.02880719	      0.98540448	      0.04909806	      0.98540448	      0.06458996	      0.98540448	      0.07723832	      0.98540448	      0.06638810	      0.98540448	      0.07000617	      0.98540448	      0.06631103	      0.98540448	      0.06570741	      0.98540448	      0.07028187	      0.98540448	      0.05768845	      0.98540448	      0.06931093	      0.98540448	      0.06230146	      0.98540448	      0.06948321	      0.98540448	      0.05956529	      0.98540448	      0.05531165	      0.98540448	      0.06416860	      0.98540448	      0.05382335	      0.98540448	      0.06653414
      0.00059137	     -5.59456196	      0.83370697	      2.36959240	     -0.35311892	     -2.36959240	      0.35311892	      5.59456196	     -0.83370697	     -1.13278499	      0.16880870	      9.15476986	     -1.36425255	      4.11500605	     -0.61322213	     -4.11500605	      0.61322213	     -9.15476986	      1.36425255	      1.13278499	     -0.16880870	    -38.26207113	     -0.23543972	     23.11797281	     -3.44506239	     38.26207113	      0.23543972	     -8.09910623	   -103.67506914	     97.68173893	     15.96481394	      0.03637505	    114.78832854	     -0.00028525	     -0.95101438	      0.00496360	     16.60547688	     -0.02218460	    -73.97483638	      0.14219658	    475.71187106	      0.97117716	      0.13320101	      0.97117716	      0.08990172	      0.97117716	      0.10296699	      0.97117716	      0.06561600	      0.97117716	      0.07618732	      0.97117716	      0.07836252	      0.97117716	      0.05982249	      0.97117716	      0.11689047	      0.97117716	      0.97117716	      0.11381629	      0.97117716	      0.08846110	      0.97117716	      0.16322105	      0.97117716	      0.12646237	      0.97117716	      0.19170319	      0.97117716	      0.07762792	      0.97117716	      0.16276338	      0.97117716	      0.10420356	      0.97117716	      0.09938809	      0.97117716	      0.02230224	      0.97117716	      0.03323864	      0.97117716	      0.10454226	      0.97117716	      0.11740971	      0.97117716	      0.06414270	      0.97117716	      0.11479588	      0.97117716	      0.05437467	      0.97117716	      0.05423889	      0.97117716	      0.06363781	      0.97117716	      0.04246083	      0.97117716	      0.02896273	      0.97117716	      0.04162180	      0.97117716	      0.03880520	      0.97117716	      0.02646708	      0.97117716	      0.02880744	      0.97117716	      0.04909872	      0.97117716	      0.06459066	      0.97117716	      0.07723910	      0.97117716	      0.06638885	      0.97117716	      0.07000697	      0.97117716	      0.06631186	      0.97117716	      0.06570816	      0.97117716	      0.07028287	      0.97117716	      0.05768943	      0.97117716	      0.06931207	      0.97117716	      0.06230255	      0.97117716	      0.06948422	      0.97117716	      0.05956630	      0.97117716	      0.05531244	      0.97117716	      0.06416929	      0.97117716	      0.05382377	      0.97117716	      0.06653466
      0.00088706	     -5.59425644	      1.22980509	      2.36946299	     -0.52088739	     -2.36946299	      0.52088739	      5.59425644	     -1.22980509	     -1.13272313	      0.24901051	      9.15426992	     -2.01241539	      4.11478133	     -0.90456687	     -4.11478133	      0.90456687	     -9.15426992	      2.01241539	      1.13272313	     -0.24901051	    -38.26215599	     -0.33593200	     23.11671035	     -5.08182783	     38.26215599	      0.33593200	     -8.13685961	   -151.05572198	     97.68759680	     23.59043319	      0.07599349	    150.41368080	     -0.00063552	     -1.42053850	      0.01103316	     24.37141732	     -0.04943599	   -110.54352803	      0.31607689	    698.18967670	      0.95730436	      0.13320307	      0.95730436	      0.08990396	      0.95730436	      0.10296891	      0.95730436	      0.06561694	      0.95730436	      0.07618778	      0.95730436	      0.07836522	      0.95730436	      0.05982364	      0.95730436	      0.11689486	      0.95730436	      0.95730436	      0.11381944	      0.95730436	      0.08846403	      0.95730436	      0.16322650	      0.95730436	      0.12646724	      0.95730436	      0.19170909	      0.95730436	      0.07762986	      0.95730436	      0.16276613	      0.95730436	      0.10420601	      0.95730436	      0.09939054	      0.95730436	      0.02230285	      0.95730436	      0.03323954	      0.95730436	      0.10454480	      0.95730436	      0.11741268	      0.95730436	      0.06414434	      0.95730436	      0.11479880	      0.95730436	      0.05437698	      0.95730436	      0.05424078	      0.95730436	      0.06363954	      0.95730436	      0.04246128	      0.95730436	      0.02896258	      0.95730436	      0.04162180	      0.95730436	      0.03880611	      0.95730436	      0.02646678	      0.95730436	      0.02880744	      0.95730436	      0.04909953	      0.95730436	      0.06459155	      0.95730436	      0.07724008	      0.95730436	      0.06638988	      0.95730436	      0.07000807	      0.95730436	      0.06631301	      0.95730436	      0.06570919	      0.95730436	      0.07028472	      0.95730436	      0.05769129	      0.95730436	      0.06931418	      0.95730436	      0.06230461	      0.95730436	      0.06948608	      0.95730436	      0.05956827	      0.95730436	      0.05531388	      0.95730436	      0.06417025	      0.95730436	      0.05382418	      0.95730436	      0.06653511
